HIERARCHY
ROOT reference
{
  OFFSET 0 0 0
  CHANNELS 6 Xposition Yposition Zposition Zrotation Xrotation Yrotation
  JOINT Hips
  {
    OFFSET 340.57 87.5694 214.797
    CHANNELS 3 Zrotation Xrotation Yrotation
    JOINT RightUpLeg
    {
      OFFSET -9.35418 -1.55218 -0.019184
      CHANNELS 3 Zrotation Xrotation Yrotation
      JOINT RightLeg
      {
        OFFSET -0.0482219 -41.8948 0.0725956
        CHANNELS 3 Zrotation Xrotation Yrotation
        JOINT RightFoot
        {
          OFFSET -1.00159 -42.3965 -1.97064
          CHANNELS 3 Zrotation Xrotation Yrotation
          End Site
          {
            OFFSET 0 -7.69 17.5
          }
        }
      }
    }
    JOINT LeftUpLeg
    {
      OFFSET 9.33628 -1.64535 -0.0795185
      CHANNELS 3 Zrotation Xrotation Yrotation
      JOINT LeftLeg
      {
        OFFSET 0.124871 -41.8725 -0.08325
        CHANNELS 3 Zrotation Xrotation Yrotation
        JOINT LeftFoot
        {
          OFFSET 0.728222 -40.8097 2.1196
          CHANNELS 3 Zrotation Xrotation Yrotation
          End Site
          {
            OFFSET 0 -7.69 17.5
          }
        }
      }
    }
    JOINT Spine
    {
      OFFSET -0.0135102 14.2943 0.0647361
      CHANNELS 3 Zrotation Xrotation Yrotation
      JOINT Spine1
      {
        OFFSET 0.0181502 9.72385 0.0148045
        CHANNELS 3 Zrotation Xrotation Yrotation
        JOINT Spine2
        {
          OFFSET 0.0557859 10.1166 -0.00979693
          CHANNELS 3 Zrotation Xrotation Yrotation
          JOINT Spine3
          {
            OFFSET 0.0359868 9.71757 0.00306838
            CHANNELS 3 Zrotation Xrotation Yrotation
            JOINT Neck
            {
              OFFSET 0.139197 10.3803 0.0501204
              CHANNELS 3 Zrotation Xrotation Yrotation
              JOINT Head
              {
                OFFSET 0.148012 9.47645 -0.000545472
                CHANNELS 3 Zrotation Xrotation Yrotation
                End Site
                {
                  OFFSET 0 15.95 0
                }
              }
            }
            JOINT RightShoulder
            {
              OFFSET -3.16276 6.92807 0.0312834
              CHANNELS 3 Zrotation Xrotation Yrotation
              JOINT RightArm
              {
                OFFSET -12.7681 0.0492996 0.0890957
                CHANNELS 3 Zrotation Xrotation Yrotation
                JOINT RightForeArm
                {
                  OFFSET -26.4761 -0.090776 0.147076
                  CHANNELS 3 Zrotation Xrotation Yrotation
                  JOINT RightHand
                  {
                    OFFSET -25.9655 0.0607057 -0.248467
                    CHANNELS 3 Zrotation Xrotation Yrotation
                    JOINT RightHandThumb1
                    {
                      OFFSET -2.48905 0.190105 3.12053
                      CHANNELS 3 Zrotation Xrotation Yrotation
                      JOINT RightHandThumb2
                      {
                        OFFSET -3.68274 0 0
                        CHANNELS 3 Zrotation Xrotation Yrotation
                        JOINT RightHandThumb3
                        {
                          OFFSET -2.55832 0 0
                          CHANNELS 3 Zrotation Xrotation Yrotation
                          End Site
                          {
                            OFFSET -2.194 0 0
                          }
                        }
                      }
                    }
                    JOINT RightInHandIndex
                    {
                      OFFSET -3.22368 0.508421 1.97842
                      CHANNELS 3 Zrotation Xrotation Yrotation
                      JOINT RightHandIndex1
                      {
                        OFFSET -5.21684 -0.091368 0.999158
                        CHANNELS 3 Zrotation Xrotation Yrotation
                        JOINT RightHandIndex2
                        {
                          OFFSET -3.61937 0 0
                          CHANNELS 3 Zrotation Xrotation Yrotation
                          JOINT RightHandIndex3
                          {
                            OFFSET -2.0521 0 0
                            CHANNELS 3 Zrotation Xrotation Yrotation
                            End Site
                            {
                              OFFSET -1.805 0 0
                            }
                          }
                        }
                      }
                    }
                    JOINT RightInHandMiddle
                    {
                      OFFSET -3.38211 0.517263 0.756737
                      CHANNELS 3 Zrotation Xrotation Yrotation
                      JOINT RightHandMiddle1
                      {
                        OFFSET -5.17411 -0.084 0.313895
                        CHANNELS 3 Zrotation Xrotation Yrotation
                        JOINT RightHandMiddle2
                        {
                          OFFSET -3.94947 0 0
                          CHANNELS 3 Zrotation Xrotation Yrotation
                          JOINT RightHandMiddle3
                          {
                            OFFSET -2.47579 0 0
                            CHANNELS 3 Zrotation Xrotation Yrotation
                            End Site
                            {
                              OFFSET -1.975 0 0
                            }
                          }
                        }
                      }
                    }
                    JOINT RightInHandRing
                    {
                      OFFSET -3.36516 0.537895 -0.128947
                      CHANNELS 3 Zrotation Xrotation Yrotation
                      JOINT RightHandRing1
                      {
                        OFFSET -4.63474 -0.022105 -0.478947
                        CHANNELS 3 Zrotation Xrotation Yrotation
                        JOINT RightHandRing2
                        {
                          OFFSET -3.44238 0 0
                          CHANNELS 3 Zrotation Xrotation Yrotation
                          JOINT RightHandRing3
                          {
                            OFFSET -2.3881 0 0
                            CHANNELS 3 Zrotation Xrotation Yrotation
                            End Site
                            {
                              OFFSET -1.857 0 0
                            }
                          }
                        }
                      }
                    }
                    JOINT RightInHandPinky
                    {
                      OFFSET -3.16105 0.469368 -1.20179
                      CHANNELS 3 Zrotation Xrotation Yrotation
                      JOINT RightHandPinky1
                      {
                        OFFSET -4.14105 -0.022105 -1.09053
                        CHANNELS 3 Zrotation Xrotation Yrotation
                        JOINT RightHandPinky2
                        {
                          OFFSET -2.75653 0 0
                          CHANNELS 3 Zrotation Xrotation Yrotation
                          JOINT RightHandPinky3
                          {
                            OFFSET -1.74189 0 0
                            CHANNELS 3 Zrotation Xrotation Yrotation
                            End Site
                            {
                              OFFSET -1.645 0 0
                            }
                          }
                        }
                      }
                    }
                  }
                }
              }
            }
            JOINT LeftShoulder
            {
              OFFSET 3.20588 6.97332 0.0254387
              CHANNELS 3 Zrotation Xrotation Yrotation
              JOINT LeftArm
              {
                OFFSET 12.8648 0.0341024 0.0247643
                CHANNELS 3 Zrotation Xrotation Yrotation
                JOINT LeftForeArm
                {
                  OFFSET 26.5059 -0.0470976 -0.0807017
                  CHANNELS 3 Zrotation Xrotation Yrotation
                  JOINT LeftHand
                  {
                    OFFSET 26.0013 -0.0100885 -0.0649647
                    CHANNELS 3 Zrotation Xrotation Yrotation
                    JOINT LeftHandThumb1
                    {
                      OFFSET 2.48905 0.190105 3.12053
                      CHANNELS 3 Zrotation Xrotation Yrotation
                      JOINT LeftHandThumb2
                      {
                        OFFSET 3.68274 0 0
                        CHANNELS 3 Zrotation Xrotation Yrotation
                        JOINT LeftHandThumb3
                        {
                          OFFSET 2.55832 0 0
                          CHANNELS 3 Zrotation Xrotation Yrotation
                          End Site
                          {
                            OFFSET 2.194 0 0
                          }
                        }
                      }
                    }
                    JOINT LeftInHandIndex
                    {
                      OFFSET 3.22368 0.508421 1.97842
                      CHANNELS 3 Zrotation Xrotation Yrotation
                      JOINT LeftHandIndex1
                      {
                        OFFSET 5.21684 -0.091368 0.999158
                        CHANNELS 3 Zrotation Xrotation Yrotation
                        JOINT LeftHandIndex2
                        {
                          OFFSET 3.61937 0 0
                          CHANNELS 3 Zrotation Xrotation Yrotation
                          JOINT LeftHandIndex3
                          {
                            OFFSET 2.0521 0 0
                            CHANNELS 3 Zrotation Xrotation Yrotation
                            End Site
                            {
                              OFFSET 1.805 0 0
                            }
                          }
                        }
                      }
                    }
                    JOINT LeftInHandMiddle
                    {
                      OFFSET 3.38211 0.517263 0.756737
                      CHANNELS 3 Zrotation Xrotation Yrotation
                      JOINT LeftHandMiddle1
                      {
                        OFFSET 5.17411 -0.084 0.313895
                        CHANNELS 3 Zrotation Xrotation Yrotation
                        JOINT LeftHandMiddle2
                        {
                          OFFSET 3.94947 0 0
                          CHANNELS 3 Zrotation Xrotation Yrotation
                          JOINT LeftHandMiddle3
                          {
                            OFFSET 2.47579 0 0
                            CHANNELS 3 Zrotation Xrotation Yrotation
                            End Site
                            {
                              OFFSET 1.975 0 0
                            }
                          }
                        }
                      }
                    }
                    JOINT LeftInHandRing
                    {
                      OFFSET 3.36516 0.537895 -0.128947
                      CHANNELS 3 Zrotation Xrotation Yrotation
                      JOINT LeftHandRing1
                      {
                        OFFSET 4.63474 -0.022105 -0.478947
                        CHANNELS 3 Zrotation Xrotation Yrotation
                        JOINT LeftHandRing2
                        {
                          OFFSET 3.44238 0 0
                          CHANNELS 3 Zrotation Xrotation Yrotation
                          JOINT LeftHandRing3
                          {
                            OFFSET 2.3881 0 0
                            CHANNELS 3 Zrotation Xrotation Yrotation
                            End Site
                            {
                              OFFSET 1.857 0 0
                            }
                          }
                        }
                      }
                    }
                    JOINT LeftInHandPinky
                    {
                      OFFSET 3.16105 0.469368 -1.20179
                      CHANNELS 3 Zrotation Xrotation Yrotation
                      JOINT LeftHandPinky1
                      {
                        OFFSET 4.14105 -0.022105 -1.09053
                        CHANNELS 3 Zrotation Xrotation Yrotation
                        JOINT LeftHandPinky2
                        {
                          OFFSET 2.75653 0 0
                          CHANNELS 3 Zrotation Xrotation Yrotation
                          JOINT LeftHandPinky3
                          {
                            OFFSET 1.74189 0 0
                            CHANNELS 3 Zrotation Xrotation Yrotation
                            End Site
                            {
                              OFFSET 1.645 0 0
                            }
                          }
                        }
                      }
                    }
                  }
                }
              }
            }
          }
        }
      }
    }
  }
}
MOTION
Frames: 2
Frame Time: 0.00833333
6.000000000000000000e+02 0.000000000000000000e+00 0.000000000000000000e+00 0.000000000000000000e+00 0.000000000000000000e+00 0.000000000000000000e+00 1.644616337402067696e+00 -1.444435801645287398e+00 -5.338199786076938125e+00 1.259007889198028352e+01 7.101960015051660413e-01 1.135534790165804253e+01 -1.338379145559565941e+00 -1.642489460447526639e+00 2.134645951002096531e+00 -4.270668315462812892e+00 4.907989352455982557e-01 -1.087148620650528530e+00 -3.882195024224700114e-02 5.242725501206627392e+00 1.387906841434488614e-01 -6.292872773615407755e-01 2.084684185935950396e+00 -2.938579897464451141e-01 1.301246178719823199e+01 -4.751757678259746598e+00 9.961701534096786048e+00 -4.770600228245984176e-01 -6.545589971639075300e-01 -1.005693239043675469e+00 -1.416695151093262661e-01 -1.187848683213250656e-01 -2.705299417192023603e-01 -2.380038049664759958e-01 -2.100386587052045229e-01 -5.249703423949555470e-01 -1.249622455226016560e-01 -2.404104295313494732e-01 5.776031456531887098e-01 -9.838246168056855590e-01 1.160572467554463610e-01 -2.748514873472927000e+00 -2.341791424047674486e+00 -4.119408915976064733e+00 1.356001370719378940e+01 1.846271641302662081e+00 1.785623384803807445e+00 -3.274850480409855713e+00 -5.226118216533012450e+00 4.289890978548541511e+00 2.750444995523253056e+00 -1.077497823894010587e+01 1.125643967194216888e+00 1.411306290455559420e+01 7.610068382592990233e+00 2.123381953812370604e+00 2.940730266086058364e+00 0.000000000000000000e+00 0.000000000000000000e+00 0.000000000000000000e+00 1.364708779542617526e-15 -3.873984546317728896e-15 0.000000000000000000e+00 -8.748882908094659672e-16 -7.392510257197320625e-15 0.000000000000000000e+00 -2.338311244141976010e-16 5.449971979254029586e-15 1.067720913017671190e-15 0.000000000000000000e+00 0.000000000000000000e+00 0.000000000000000000e+00 0.000000000000000000e+00 -1.167648024284230915e-15 3.065354082554079628e-15 0.000000000000000000e+00 6.026611023838240737e-15 -4.680581545757868671e-15 -2.338311244141976010e-16 5.449971979254029586e-15 1.067720913017671190e-15 0.000000000000000000e+00 5.807270587225518893e-16 9.901499580571044322e-15 0.000000000000000000e+00 5.952086666818986890e-16 5.056580062218642707e-15 0.000000000000000000e+00 -1.306043302020765832e-15 -5.766940461839299118e-15 -2.338311244141976010e-16 5.449971979254029586e-15 1.067720913017671190e-15 0.000000000000000000e+00 0.000000000000000000e+00 0.000000000000000000e+00 0.000000000000000000e+00 5.569266180808265079e-15 2.814774840791068235e-15 0.000000000000000000e+00 -3.451507626974110595e-15 -4.660652955633542843e-15 -2.338311244141976010e-16 5.449971979254029586e-15 1.067720913017671190e-15 0.000000000000000000e+00 0.000000000000000000e+00 0.000000000000000000e+00 0.000000000000000000e+00 1.754756953573748847e-15 1.856044302380824905e-15 0.000000000000000000e+00 -3.313997029823693486e-15 -1.514100373810379238e-16 -2.939104558144350232e+00 -3.058250250560275774e+00 -1.219996058309584352e+00 -9.039894729914780269e-01 5.912256576209450998e+00 -3.046028720287544456e+00 -2.545866778850188084e+00 6.254032948445190421e+00 -1.876464251586323684e+01 -1.141610981854184192e+00 1.427966219314212415e+00 -5.582335403322097989e+00 0.000000000000000000e+00 0.000000000000000000e+00 0.000000000000000000e+00 2.164943507913142422e-15 2.250823304457216716e-15 0.000000000000000000e+00 4.642059084127303402e-15 4.729779164068176461e-15 0.000000000000000000e+00 -2.857290891997750571e-15 4.150927484624117880e-16 -3.594804242676862204e-15 0.000000000000000000e+00 0.000000000000000000e+00 0.000000000000000000e+00 0.000000000000000000e+00 -3.247324161671308443e-15 -1.807014834451246482e-16 0.000000000000000000e+00 -1.945782029390406814e-15 3.095185393561679133e-15 -2.857290891997750571e-15 4.150927484624117880e-16 -3.594804242676862204e-15 0.000000000000000000e+00 4.332017961923896169e-15 -5.662646882115531276e-15 0.000000000000000000e+00 -1.684856788656377312e-15 -7.527898987884475517e-15 0.000000000000000000e+00 -4.024722778263777045e-15 7.312752557846884118e-16 -2.857290891997750571e-15 4.150927484624117880e-16 -3.594804242676862204e-15 0.000000000000000000e+00 0.000000000000000000e+00 0.000000000000000000e+00 0.000000000000000000e+00 -4.155088540696803701e-15 1.115126669176910268e-15 0.000000000000000000e+00 -2.969171751259075023e-15 4.033845542507746887e-15 -2.857290891997750571e-15 4.150927484624117880e-16 -3.594804242676862204e-15 0.000000000000000000e+00 0.000000000000000000e+00 0.000000000000000000e+00 0.000000000000000000e+00 -4.980923508880191284e-15 8.397166861726510154e-15 0.000000000000000000e+00 -4.229225358068993580e-16 2.430766696064703828e-16
6.000000000000000000e+02 0.000000000000000000e+00 0.000000000000000000e+00 0.000000000000000000e+00 0.000000000000000000e+00 0.000000000000000000e+00 1.615700589379776453e+00 -1.316957294728312577e+00 -5.218946350030846837e+00 1.245503412723578229e+01 4.460828956145453383e-01 1.121875561224587337e+01 -1.490781731370731000e+00 -1.558161990640021699e+00 2.319625718105749801e+00 -4.086832607346490676e+00 6.091513265135016786e-01 -1.195131267714403256e+00 2.789169890277578001e-01 5.172562477264309067e+00 2.725863897524321011e-01 -6.463730278510653182e-01 2.130833271512341476e+00 -2.265576271546777543e-01 1.272567014604046243e+01 -5.116192883036448258e+00 9.723758832526785412e+00 -4.242074625610179339e-01 -6.032566347415140307e-01 -1.137186277108467758e+00 -1.321949080237116436e-01 -9.779961361508231199e-02 -3.085796943396708070e-01 -2.213633677985205883e-01 -1.671508249014543035e-01 -5.917912741333366533e-01 -1.264555811466344382e-01 -2.290736581054860499e-01 5.980831011440237432e-01 -8.929757492521078754e-01 2.544997727734226167e-01 -3.262392582533503838e+00 -2.417045253068711208e+00 -4.264376034503770008e+00 1.436433924637129778e+01 1.829090830606126650e+00 1.735420683988310397e+00 -3.382698095070696187e+00 -4.987417595183797125e+00 4.527201233629478239e+00 2.632584821007441178e+00 -1.097324207309749156e+01 1.556239705117949512e+00 1.444796992227061772e+01 7.817648283794980557e+00 2.085563867843173380e+00 3.630403694679606552e+00 0.000000000000000000e+00 0.000000000000000000e+00 0.000000000000000000e+00 1.854093465126604964e-15 -5.299913853171794999e-15 0.000000000000000000e+00 -1.000169677084638009e-15 -6.680052948124962441e-15 0.000000000000000000e+00 -4.353155506529510221e-16 5.458639901427305665e-15 1.130804680080178540e-15 0.000000000000000000e+00 0.000000000000000000e+00 0.000000000000000000e+00 0.000000000000000000e+00 -5.366727827308699984e-16 2.832834253681088806e-15 0.000000000000000000e+00 6.486530398138360089e-15 -3.556846893562033546e-15 -4.353155506529510221e-16 5.458639901427305665e-15 1.130804680080178540e-15 0.000000000000000000e+00 4.233396778608829110e-16 9.056302933139736929e-15 0.000000000000000000e+00 5.341190847238103867e-16 5.387085596206131783e-15 0.000000000000000000e+00 -1.093291270473235517e-15 -5.456708749576781353e-15 -4.353155506529510221e-16 5.458639901427305665e-15 1.130804680080178540e-15 0.000000000000000000e+00 0.000000000000000000e+00 0.000000000000000000e+00 0.000000000000000000e+00 4.983913728352157410e-15 3.579278285007431432e-15 0.000000000000000000e+00 -3.359563195622586305e-15 -4.088272365535449630e-15 -4.353155506529510221e-16 5.458639901427305665e-15 1.130804680080178540e-15 0.000000000000000000e+00 0.000000000000000000e+00 0.000000000000000000e+00 0.000000000000000000e+00 1.334037792145542394e-15 1.909753267149183422e-15 0.000000000000000000e+00 -3.238730524296279646e-15 5.184328662738204456e-16 -2.865806401463269371e+00 -2.675572866962959928e+00 -1.018003978542435517e+00 -1.154996057354598538e+00 5.852005852419105203e+00 -2.624882482966527597e+00 -1.857624759301076622e+00 7.117021907018616034e+00 -1.881199557252535115e+01 -1.318847850251584353e+00 1.666042937895650722e+00 -5.541162750766034151e+00 0.000000000000000000e+00 0.000000000000000000e+00 0.000000000000000000e+00 2.563521030841424782e-15 1.892719405213037633e-15 0.000000000000000000e+00 4.301509706132511604e-15 3.193953114351504659e-15 0.000000000000000000e+00 -2.744757836876546709e-15 3.332605073969198641e-16 -3.424734495063875958e-15 0.000000000000000000e+00 0.000000000000000000e+00 0.000000000000000000e+00 0.000000000000000000e+00 -3.205296353502223824e-15 -5.571165359958664883e-16 0.000000000000000000e+00 -1.036152812752789265e-15 2.897652514109460447e-15 -2.744757836876546709e-15 3.332605073969198641e-16 -3.424734495063875958e-15 0.000000000000000000e+00 3.624042985437736422e-15 -5.999116908940411607e-15 0.000000000000000000e+00 -1.668677181486184604e-15 -8.898153269971649763e-15 0.000000000000000000e+00 -4.180346421723440227e-15 3.064914294492053011e-16 -2.744757836876546709e-15 3.332605073969198641e-16 -3.424734495063875958e-15 0.000000000000000000e+00 0.000000000000000000e+00 0.000000000000000000e+00 0.000000000000000000e+00 -3.851674303117428950e-15 3.416857497432311619e-16 0.000000000000000000e+00 -2.672042743797087529e-15 2.732935595486525029e-15 -2.744757836876546709e-15 3.332605073969198641e-16 -3.424734495063875958e-15 0.000000000000000000e+00 0.000000000000000000e+00 0.000000000000000000e+00 0.000000000000000000e+00 -4.023451987646780557e-15 7.395151430692915710e-15 0.000000000000000000e+00 3.305175686672458666e-16 -1.577804812591149172e-15
